<svg width="600" height="600" viewBox="0 0 600 600" fill="none" xmlns="http://www.w3.org/2000/svg">
<g clip-path="url(#clip0_448_185)">
<rect width="600" height="600" fill="#072653"/>
<mask id="mask0_448_185" style="mask-type:luminance" maskUnits="userSpaceOnUse" x="49" y="198" width="900" height="199">
<path d="M948.555 198.438H49.75V396.678H948.555V198.438Z" fill="white"/>
</mask>
<g mask="url(#mask0_448_185)">
<path d="M212.842 246.951C217.519 241.007 223.373 236.092 230.038 232.513C236.984 228.89 244.727 227.059 252.561 227.189C259.184 227.002 265.757 228.388 271.739 231.234C276.974 233.86 281.515 237.684 284.993 242.394C288.609 247.386 291.214 253.035 292.664 259.025C294.332 265.624 295.156 272.408 295.115 279.214C295.164 289.184 293.618 299.098 290.534 308.58C287.748 317.335 283.466 325.542 277.876 332.836C272.703 339.606 266.171 345.221 258.698 349.319C251.137 353.38 242.67 355.461 234.087 355.366C226.185 355.587 218.345 353.915 211.222 350.49C204.405 346.784 198.77 341.234 194.963 334.476L181.709 396.68H155.244L190.382 230.937H216.166L212.842 246.951ZM201.463 305.918C201.091 313.326 203.586 320.594 208.431 326.213C213.076 331.324 220.044 333.879 229.334 333.879C235.039 333.974 240.647 332.397 245.465 329.343C250.31 326.219 254.4 322.058 257.441 317.162C260.86 311.716 263.398 305.765 264.963 299.53C266.675 292.814 267.534 285.909 267.52 278.979C267.52 269.254 265.347 261.829 261 256.704C258.947 254.22 256.354 252.238 253.418 250.909C250.482 249.581 247.281 248.94 244.059 249.038C239.367 248.984 234.713 249.883 230.379 251.678C226.108 253.46 222.179 255.967 218.766 259.089C215.239 262.306 212.259 266.075 209.944 270.248C207.515 274.56 205.748 279.212 204.702 284.048C203.011 291.235 201.927 298.55 201.463 305.918Z" fill="white"/>
<path d="M337.862 354.661C327.179 354.661 318.655 351.822 312.291 346.143C305.927 340.465 302.759 332.301 302.788 321.654C302.491 314.161 304.426 306.749 308.349 300.358C312.116 294.755 317.249 290.203 323.265 287.133C329.958 283.708 337.149 281.358 344.574 280.17C352.867 278.759 361.247 277.906 369.654 277.614L391.709 276.677L392.412 272.972C392.866 270.362 393.101 267.719 393.115 265.071C393.26 262.685 392.899 260.295 392.059 258.057C391.218 255.819 389.916 253.783 388.236 252.081C384.975 248.993 379.712 247.439 372.212 247.439C363.83 247.439 357.48 248.56 353.161 250.803C348.842 253.046 345.511 257.419 343.167 263.921L319.238 261.365C323.116 249 329.622 240.219 338.757 235.023C347.891 229.827 359.966 227.236 374.982 227.25C389.074 227.25 399.835 230.459 407.264 236.876C414.694 243.293 418.487 252.308 418.643 263.921C418.63 266.172 418.474 268.42 418.174 270.651C417.854 272.972 417.471 275.378 417.002 277.849L401.341 351.638H376.196L379.456 335.857C374.215 341.17 368.272 345.742 361.791 349.444C354.391 353.196 346.153 354.993 337.862 354.661ZM387.809 294.268L369.931 295.183C363.371 295.494 356.846 296.313 350.412 297.632C345.982 298.465 341.734 300.073 337.862 302.381C334.999 304.135 332.705 306.679 331.256 309.707C329.885 312.81 329.208 316.175 329.274 319.566C329.256 321.485 329.625 323.389 330.356 325.163C331.089 326.937 332.17 328.546 333.536 329.895C336.377 332.734 340.639 334.154 346.321 334.154C350.974 334.2 355.603 333.48 360.023 332.025C364.216 330.63 368.17 328.597 371.743 325.998C375.223 323.457 378.218 320.312 380.585 316.713C383.003 312.996 384.695 308.856 385.572 304.511L387.809 294.268Z" fill="white"/>
<path d="M434.108 230.934H463.365L478.707 317.99L527.056 230.934H557.251L479.389 359.069C475.681 365.259 472.236 370.717 469.054 375.445C466.23 379.749 462.88 383.683 459.081 387.158C455.698 390.181 451.801 392.575 447.575 394.228C442.8 395.969 437.74 396.8 432.659 396.677C429.08 396.707 425.509 396.358 422.004 395.634C418.799 394.925 415.656 393.956 412.607 392.737L419.575 372.762C421.28 373.379 423.219 373.955 425.393 374.508C427.673 375.059 430.013 375.331 432.361 375.318C436.46 375.507 440.481 374.137 443.612 371.484C447.44 367.683 450.692 363.342 453.264 358.6L460.232 346.76L434.108 230.934Z" fill="white"/>
<path d="M120.96 313.114C120.64 314.647 120.385 316.01 120.15 317.16C119.911 318.345 119.789 319.551 119.788 320.759C119.788 325.253 120.917 328.362 123.155 330.044C125.848 331.889 129.079 332.788 132.339 332.6C137.22 332.618 142.076 331.901 146.744 330.47L150.686 350.211C142.805 352.744 134.565 353.988 126.287 353.895C115.619 353.895 107.415 351.496 101.675 346.697C95.9366 341.899 93.0953 334.63 93.152 324.891C93.1444 320.58 93.6886 316.286 94.7717 312.113L107.557 251.762H49.7461L54.157 230.871H111.904L118.871 198.438H145.337L138.369 230.935H170.759L166.347 251.825H133.958L120.96 313.114Z" fill="white"/>
</g>
</g>
<defs>
<clipPath id="clip0_448_185">
<rect width="600" height="600" fill="white"/>
</clipPath>
</defs>
</svg>
